<?xml version="1.0" encoding="UTF-8" standalone="no"?>
<svg
   xmlns:dc="http://purl.org/dc/elements/1.1/"
   xmlns:cc="http://creativecommons.org/ns#"
   xmlns:rdf="http://www.w3.org/1999/02/22-rdf-syntax-ns#"
   xmlns:svg="http://www.w3.org/2000/svg"
   xmlns="http://www.w3.org/2000/svg"
   xmlns:sodipodi="http://sodipodi.sourceforge.net/DTD/sodipodi-0.dtd"
   xmlns:inkscape="http://www.inkscape.org/namespaces/inkscape"
   version="1.1"
   id="svg2"
   width="389.10431"
   height="389.91998"
   viewBox="0 0 389.10431 389.91999"
   sodipodi:docname="decals.svg"
   inkscape:version="1.0.1 (3bc2e813f5, 2020-09-07)">
  <metadata
     id="metadata8">
    <rdf:RDF>
      <cc:Work
         rdf:about="">
        <dc:format>image/svg+xml</dc:format>
        <dc:type
           rdf:resource="http://purl.org/dc/dcmitype/StillImage" />
        <dc:title />
      </cc:Work>
    </rdf:RDF>
  </metadata>
  <defs
     id="defs6" />
  <sodipodi:namedview
     pagecolor="#ffffff"
     bordercolor="#666666"
     borderopacity="1"
     objecttolerance="10"
     gridtolerance="10"
     guidetolerance="10"
     inkscape:pageopacity="0"
     inkscape:pageshadow="2"
     inkscape:window-width="1920"
     inkscape:window-height="1027"
     id="namedview4"
     showgrid="false"
     showguides="false"
     inkscape:zoom="3.6648473"
     inkscape:cx="168.11793"
     inkscape:cy="181.47375"
     inkscape:window-x="0"
     inkscape:window-y="0"
     inkscape:window-maximized="1"
     inkscape:current-layer="g945"
     inkscape:object-paths="true"
     fit-margin-top="0"
     fit-margin-left="0"
     fit-margin-right="0"
     fit-margin-bottom="0"
     inkscape:document-rotation="0" />
  <g
     inkscape:groupmode="layer"
     id="g945"
     inkscape:label="cookie-cutter-decals"
     transform="translate(-158.48223,-73.255707)">
    <path
       style="color:#000000;font-style:normal;font-variant:normal;font-weight:normal;font-stretch:normal;font-size:medium;line-height:normal;font-family:sans-serif;font-variant-ligatures:normal;font-variant-position:normal;font-variant-caps:normal;font-variant-numeric:normal;font-variant-alternates:normal;font-variant-east-asian:normal;font-feature-settings:normal;font-variation-settings:normal;text-indent:0;text-align:start;text-decoration:none;text-decoration-line:none;text-decoration-style:solid;text-decoration-color:#000000;letter-spacing:normal;word-spacing:normal;text-transform:none;writing-mode:lr-tb;direction:ltr;text-orientation:mixed;dominant-baseline:auto;baseline-shift:baseline;text-anchor:start;white-space:normal;shape-padding:0;shape-margin:0;inline-size:0;clip-rule:nonzero;display:inline;overflow:visible;visibility:visible;opacity:1;isolation:auto;mix-blend-mode:normal;color-interpolation:sRGB;color-interpolation-filters:linearRGB;solid-color:#000000;solid-opacity:1;vector-effect:none;fill:#ff00ff;fill-opacity:1;fill-rule:nonzero;stroke:none;stroke-width:3.40157;stroke-linecap:butt;stroke-linejoin:miter;stroke-miterlimit:4;stroke-dasharray:none;stroke-dashoffset:0;stroke-opacity:1;color-rendering:auto;image-rendering:auto;shape-rendering:auto;text-rendering:auto;enable-background:accumulate;stop-color:#000000;stop-opacity:1"
       d="m 442.01172,91.28125 -3.2832,0.888672 c 3.34858,12.380498 6.37336,24.482898 9.48437,36.583988 l -5.92383,2.98242 1.53125,3.03906 5.26563,-2.65234 0.9082,3.50586 -5.14062,2.58984 1.53125,3.03711 4.48242,-2.25781 c 0,0 9.09222,32.34611 15.13086,47.90039 -3.10426,0.0929 -6.22103,0.28906 -9.30469,0.79492 -9.74559,1.59871 -16.12355,6.80958 -21.67578,11.58984 -5.55223,4.78027 -10.25839,9.03442 -16.9336,9.84961 -6.11908,0.74728 -15.68506,-1.80804 -23.52343,-4.66601 -7.83838,-2.85798 -14.00977,-5.91797 -14.00977,-5.91797 l -4.60156,-2.28321 2.32812,4.57813 c 0,0 3.69223,7.2654 10.32813,14.62109 6.6359,7.3557 16.33833,14.9863 28.51367,15.39844 13.28331,0.44964 22.05134,-4.96561 28.62305,-10.875 6.5717,-5.90939 11.24487,-12.14283 16.05664,-14.0039 3.06084,-1.18387 6.97922,-2.05463 11.1289,-2.79102 2.62882,5.60491 4.01165,8.73093 7.61329,14.31055 l 2.85742,-1.84375 c -3.2899,-5.09668 -4.66873,-8.10164 -6.96875,-13.01954 1.62799,-0.2368 3.29905,-0.38421 4.9707,-0.56835 3.60831,-0.39895 7.20657,-0.75091 10.7168,-0.94922 2.13289,-0.11871 4.21737,-0.23051 6.1914,-0.29493 2.32263,-0.072 4.38297,-0.11828 6.33399,-0.13671 4.07801,-0.0224 7.6348,-0.028 8.47656,-0.006 -6.0138,7.08123 -11.48348,9.51559 -21.06445,16.56836 l 2.01562,2.74023 c 15.21602,-11.20084 21.09955,-11.50967 35.03321,-38.58008 l -3.02344,-1.55664 c -4.14654,8.05592 -7.4403,13.44104 -10.48828,17.58789 -19.25934,-10.03668 -45.33899,-37.0876 -60.28711,-60.68359 l 6.11133,-3.07813 -1.5293,-3.03711 -6.43164,3.23829 -0.5586,-0.86915 -0.69728,-2.46089 6.65234,-3.35157 -1.52929,-3.0371 -5.99805,3.01953 z m 13.67187,52.37695 c 12.22987,17.92231 29.61329,36.57883 45.7168,48.58203 -1.0083,-0.30896 -2.10022,-0.59442 -3.1875,-0.90039 -1.14649,-0.32543 -2.10405,-0.60324 -3.33008,-0.91601 -0.98526,-0.2505 -2.01634,-0.46843 -3.04687,-0.70508 -1.7607,-0.40582 -3.4862,-0.79989 -5.35938,-1.14453 -1.29064,-0.23735 -2.64521,-0.39549 -3.97851,-0.59375 -2.19146,-0.32566 -4.37307,-0.60771 -6.65039,-0.79688 -2.06569,-0.17306 -4.15205,-0.28816 -6.25782,-0.32031 -5.5058,-13.99943 -9.88586,-28.444 -13.90625,-43.20508 z m -111.63671,28.92578 -1.80665,2.88282 c 5.21458,3.26774 7.9407,6.37112 10.38672,10.29297 2.44603,3.92184 4.56565,8.71688 8.25977,14.96875 2.21929,3.75589 4.0044,11.8068 4.28711,20.51367 0.28271,8.70687 -0.85817,18.1569 -3.83008,25.02734 -1.48595,3.43522 -3.41439,6.20278 -5.75,8 -2.33561,1.79722 -5.0565,2.69576 -8.53711,2.39258 -6.96122,-0.60637 -17.07339,-6.46201 -30.44726,-21.16211 l -2.63086,2.14844 c 7.45755,10.19374 8.62314,19.91073 6.26367,27.82812 -2.35948,7.9174 -8.34098,14.07177 -15.47657,16.84571 -7.13558,2.77393 -15.33536,2.23402 -22.49218,-3.28321 -7.15682,-5.51722 -13.34815,-16.18533 -15.80078,-33.96875 l -3.33985,-0.16015 c -4.65569,19.69088 -11.74787,31.04008 -18.8789,36.36328 -7.13104,5.32319 -14.22327,4.94419 -20.14844,1.04687 -11.85035,-7.79462 -18.36275,-30.65437 -2.40625,-52.24609 l -2.66992,-2.10547 c -7.06118,8.39411 -11.85843,11.90774 -16.11133,13.29883 -4.25291,1.39108 -8.31561,0.75449 -14.18359,0.27539 -3.89698,-0.31818 -9.73352,-3.69139 -13.35157,-7.45117 l -2.45117,2.35937 c 4.12431,4.28588 10.13827,8.04258 15.52539,8.48242 5.73129,0.46794 10.38179,1.24887 15.51953,-0.43164 2.7601,-0.9028 5.58613,-2.57741 8.70899,-5.1875 -8.17279,19.35253 -2.07119,38.20325 9.55078,45.84766 6.94119,4.5656 15.94747,4.88833 24.05273,-1.16211 7.12725,-5.32037 13.51198,-15.68558 18.21485,-31.72461 3.07466,14.34426 8.69932,24.0653 15.69336,29.45703 8.08085,6.22957 17.68431,6.91501 25.80078,3.75977 8.11646,-3.15525 14.83423,-10.08664 17.5039,-19.04492 1.82219,-6.1145 1.50497,-13.18118 -1.2832,-20.50196 9.77699,9.12302 17.83215,13.52092 24.54297,14.10547 4.24861,0.37008 7.959,-0.81806 10.90625,-3.08594 2.94725,-2.26787 5.15173,-5.54247 6.79687,-9.3457 3.29028,-7.60646 4.40204,-17.41486 4.10743,-26.48828 -0.29462,-9.07343 -1.917,-17.32506 -4.75782,-22.13281 -3.59462,-6.08348 -5.67119,-10.81977 -8.30273,-15.03907 -2.63154,-4.21929 -5.86529,-7.86601 -11.46484,-11.375 z m 123.26953,17.6211 c 3.35302,-0.0385 6.69854,0.14594 9.9707,0.48437 3.00178,0.37642 6.21972,0.83493 8.83398,1.32224 4.25888,0.79918 8.10946,1.80717 11.67969,2.83008 2.93963,0.84587 5.32823,1.64361 7.57813,2.43359 -2.95742,0.0201 -5.46935,0.092 -7.49805,0.16016 -1.30236,0.0419 -2.15103,0.0118 -3.5293,0.0762 -0.74984,0.035 -1.58324,0.16291 -2.34961,0.20508 -3.40756,0.18971 -6.70504,0.51525 -10.24023,0.89062 -2.53278,0.26365 -4.94492,0.50778 -7.40234,0.84961 -0.98221,0.13663 -1.95472,0.339 -2.95313,0.53125 -3.93845,0.75838 -7.70837,1.61335 -10.83398,2.82227 -6.33941,2.45193 -10.86459,9.03457 -17.10547,14.64648 -6.24089,5.61191 -13.9021,10.42324 -26.23242,10.00586 -10.80476,-0.36574 -19.79263,-7.28191 -26.10352,-14.27734 -3.06946,-3.40241 -5.44659,-6.75027 -7.10938,-9.32227 2.52229,1.10993 5.67907,2.45195 9.37305,3.79883 8.03311,2.92898 17.71393,5.74985 25.10156,4.84766 7.88947,-0.96349 13.23862,-5.91202 18.74219,-10.65039 5.50357,-4.73838 11.1824,-9.36311 20.00586,-10.81055 3.32104,-0.5448 6.70021,-0.80499 10.07227,-0.84375 z"
       id="path833"
       sodipodi:nodetypes="cccccccccccsssscccssssccccccccccccccccccccccccccccccccccsssssssccsssccssccssccsscsscssscsssssscscccccsccsssssscsssssc" />
  </g>
</svg>
