<?xml version="1.0" encoding="UTF-8" standalone="no"?>
<svg
   xmlns:dc="http://purl.org/dc/elements/1.1/"
   xmlns:cc="http://creativecommons.org/ns#"
   xmlns:rdf="http://www.w3.org/1999/02/22-rdf-syntax-ns#"
   xmlns:svg="http://www.w3.org/2000/svg"
   xmlns="http://www.w3.org/2000/svg"
   xmlns:sodipodi="http://sodipodi.sourceforge.net/DTD/sodipodi-0.dtd"
   xmlns:inkscape="http://www.inkscape.org/namespaces/inkscape"
   version="1.1"
   id="svg2"
   width="389.10431"
   height="389.91998"
   viewBox="0 0 389.10431 389.91999"
   sodipodi:docname="outline.svg"
   inkscape:version="1.0.1 (3bc2e813f5, 2020-09-07)">
  <metadata
     id="metadata8">
    <rdf:RDF>
      <cc:Work
         rdf:about="">
        <dc:format>image/svg+xml</dc:format>
        <dc:type
           rdf:resource="http://purl.org/dc/dcmitype/StillImage" />
        <dc:title />
      </cc:Work>
    </rdf:RDF>
  </metadata>
  <defs
     id="defs6" />
  <sodipodi:namedview
     pagecolor="#ffffff"
     bordercolor="#666666"
     borderopacity="1"
     objecttolerance="10"
     gridtolerance="10"
     guidetolerance="10"
     inkscape:pageopacity="0"
     inkscape:pageshadow="2"
     inkscape:window-width="1920"
     inkscape:window-height="1027"
     id="namedview4"
     showgrid="false"
     showguides="false"
     inkscape:zoom="20.965901"
     inkscape:cx="317.54505"
     inkscape:cy="19.010308"
     inkscape:window-x="0"
     inkscape:window-y="0"
     inkscape:window-maximized="1"
     inkscape:current-layer="g931"
     inkscape:object-paths="true"
     fit-margin-top="0"
     fit-margin-left="0"
     fit-margin-right="0"
     fit-margin-bottom="0"
     inkscape:document-rotation="0" />
  <g
     inkscape:groupmode="layer"
     id="g931"
     inkscape:label="cookie-cutter-outline"
     style="display:inline;opacity:0.58251"
     transform="translate(-158.48223,-73.255707)">
    <path
       style="color:#000000;font-style:normal;font-variant:normal;font-weight:normal;font-stretch:normal;font-size:medium;line-height:normal;font-family:sans-serif;font-variant-ligatures:normal;font-variant-position:normal;font-variant-caps:normal;font-variant-numeric:normal;font-variant-alternates:normal;font-variant-east-asian:normal;font-feature-settings:normal;font-variation-settings:normal;text-indent:0;text-align:start;text-decoration:none;text-decoration-line:none;text-decoration-style:solid;text-decoration-color:#000000;letter-spacing:normal;word-spacing:normal;text-transform:none;writing-mode:lr-tb;direction:ltr;text-orientation:mixed;dominant-baseline:auto;baseline-shift:baseline;text-anchor:start;white-space:normal;shape-padding:0;shape-margin:0;inline-size:0;clip-rule:nonzero;display:inline;overflow:visible;visibility:visible;opacity:1;isolation:auto;mix-blend-mode:normal;color-interpolation:sRGB;color-interpolation-filters:linearRGB;solid-color:#000000;solid-opacity:1;vector-effect:none;fill:#ff00ff;fill-opacity:1;fill-rule:nonzero;stroke:none;stroke-width:5.10236;stroke-linecap:butt;stroke-linejoin:miter;stroke-miterlimit:4;stroke-dasharray:none;stroke-dashoffset:0;stroke-opacity:1;color-rendering:auto;image-rendering:auto;shape-rendering:auto;text-rendering:auto;enable-background:accumulate;stop-color:#000000;stop-opacity:1"
       d="m 485.50781,73.255859 c -1.2846,-0.0094 -2.64336,0.206337 -4.04492,0.654297 -2.80311,0.89592 -5.88516,2.640366 -9.63672,5.402344 -4.11431,3.029057 -8.52489,7.877691 -12.07226,11.212891 -4.19877,-0.795467 -9.01227,-1.277244 -12.34766,-1.302735 -15.16306,-0.11586 -23.37438,-0.711565 -44.88086,13.517574 -17.59883,11.64376 -26.28137,31.97163 -34.9707,42.94532 -14.86739,18.77592 -17.05222,19.07714 -25.47852,25.91992 -5.90812,4.79782 -16.33548,13.22043 -23.86133,16.95703 -6.18781,3.07227 -19.48216,5.29311 -32.25976,5.42578 -10.42991,0.10834 -56.71868,4.0162 -69.13477,6.61914 -34.09907,7.14863 -45.327,33.67567 -52.35937,47.91797 -5.29951,10.73285 -6.0866,29.05246 -5.9668,50.16602 0.1198,21.11355 1.37669,44.87511 1.14063,65.46875 -0.32164,28.05839 1.09152,58.45111 1.1875,86.31054 0.0165,4.80085 3.40725,8.41339 7.63281,10.33985 4.22556,1.92645 9.48386,2.60953 14.79101,2.28906 5.30716,-0.32047 10.66236,-1.65815 15.00782,-4.19336 4.34546,-2.53521 7.78292,-6.49906 8.28515,-11.67773 2.62287,-27.04581 1.35609,-65.06439 7.84571,-91.1875 14.83824,5.50298 32.4707,13.41746 52.18359,15.24414 27.48864,2.54722 51.73427,1.85729 81.04687,-3.70313 9.02416,-1.71182 21.47471,-6.18236 33.88477,-9.79297 11.62132,-3.38113 23.0764,-5.74805 30.82031,-4.85547 3.74373,17.35951 4.43251,35.43688 6.38281,53.4961 1.9081,17.66845 1.93441,24.37159 4.14844,43.51953 0.53771,4.65037 3.83436,8.06725 7.86524,10.05859 4.03087,1.99134 8.92731,2.83094 13.7832,2.75781 4.85589,-0.0731 9.67335,-1.05618 13.55664,-3.11328 3.88329,-2.0571 6.99676,-5.50848 7.17578,-10.02734 0.37021,-9.34527 3.47224,-41.14338 4.58008,-65.27148 0.32421,-7.06094 0.44883,-18.23497 0.51562,-22.20508 l 0.47071,-27.99414 c 0.35587,-21.15073 1.26113,-40.9148 3.59961,-61.82422 1.32043,-11.80647 2.22225,-28.95798 4.10156,-40.94531 0.61622,-3.93068 1.49627,-8.7668 3.0332,-10.96485 1.42101,-2.03227 3.53402,-3.58351 5.62507,-2.93086 0.51205,0.15982 0.50144,0.0777 1.13275,0.48946 0.63134,0.41177 1.46828,1.0825 2.33007,1.86132 1.72359,1.55765 3.58331,3.56584 4.74414,4.98047 2.98674,3.63975 6.9958,5.5742 10.08204,7.64649 3.48629,2.34092 6.82826,4.66548 11.70898,4.63476 3.24216,-0.0204 5.87532,-1.57016 8.06641,-3.14844 2.19108,-1.57827 4.08878,-3.26382 5.67382,-4.16406 3.06487,-1.74071 7.03711,-3.69699 10.40821,-6.46484 3.3711,-2.76785 6.25131,-6.64006 6.28125,-11.7168 0.0263,-4.44516 -2.15587,-9.05706 -5.12305,-14.03906 -2.96718,-4.982 -6.83977,-10.28372 -10.66992,-15.5332 -10.48751,-14.37385 -21.54501,-27.36446 -29.0332,-39.41407 -8.79977,-14.16016 -12.52243,-26.82118 -10.27344,-38.2207 0.86815,-4.400459 2.81099,-7.943627 4.44726,-10.951171 0.81814,-1.503772 1.57189,-2.852307 2.04688,-4.3125 0.47499,-1.460194 0.62949,-3.416106 -0.45703,-4.994141 -2.84204,-4.127687 -5.00595,-8.368323 -9.41797,-10.1875 -1.10301,-0.454794 -2.31305,-0.689866 -3.59766,-0.699219 z m -0.0645,5.070313 c 0.66082,0.0012 1.20293,0.133824 1.7168,0.345703 2.05546,0.847516 4.19012,4.049698 7.16015,8.363281 -0.52117,1.466345 -1.26917,2.873184 -1.86719,3.97461 -1.61946,2.976652 -3.92577,7.095976 -4.97265,12.402344 -2.59344,13.14544 1.76605,27.13151 10.94531,41.90234 7.80437,12.55838 18.90311,25.55543 29.24414,39.72852 3.82961,5.24875 7.6302,10.46906 10.41016,15.13672 2.77996,4.66766 4.41945,8.83259 4.4043,11.39843 -0.0191,3.23276 -1.68112,5.55564 -4.41797,7.80274 -2.73686,2.2471 -6.43885,4.12645 -9.68946,5.97266 -2.32652,1.32136 -4.26432,3.11026 -6.13672,4.45898 -1.87239,1.34872 -3.53069,2.17755 -5.11523,2.1875 -3.31216,0.0208 -5.29993,-1.39785 -8.83203,-3.76953 -3.46473,-2.32643 -6.91598,-4.12823 -8.98242,-6.64649 -1.34268,-1.63622 -3.29069,-3.74273 -5.26758,-5.52929 -0.98845,-0.89328 -1.97586,-1.70457 -2.96485,-2.34961 -0.98898,-0.64504 -1.87713,-1.27702 -3.4746,-1.25 -3.34896,0.0566 -7.61164,1.26491 -10.25196,5.04101 -2.74888,3.93132 -3.28773,9.23953 -3.89258,13.09766 -1.95487,12.46932 -2.84326,29.65709 -4.13086,41.16992 -2.36177,21.11774 -3.27343,41.06167 -3.63085,62.30469 l -0.47071,27.99414 c -0.0677,4.02302 -0.19616,15.1841 -0.51172,22.05664 -1.09718,23.89599 -4.18424,55.3126 -4.58007,65.30469 -0.0934,2.35809 -1.56899,4.18369 -4.4668,5.71875 -2.89781,1.53506 -7.05431,2.45839 -11.24414,2.52148 -4.18983,0.0631 -8.41185,-0.73091 -11.44727,-2.23047 -3.03541,-1.49955 -4.75152,-3.43151 -5.05664,-6.07031 -2.1989,-19.0171 -2.22223,-25.68048 -4.14453,-43.48047 -1.9906,-18.43231 -2.56467,-37.37211 -6.82031,-55.93164 l -0.37305,-1.625 -1.63867,-0.31055 c -9.6252,-1.82425 -22.26134,1.20687 -34.86914,4.875 -12.6078,3.66814 -25.16586,8.1158 -33.41016,9.67969 -28.88475,5.47926 -52.49254,6.14899 -79.625,3.63477 -19.66653,-1.82239 -37.95281,-10.35557 -53.63867,-15.97461 l -2.58203,-0.92578 -0.73633,2.64258 c -7.67213,27.57778 -5.97383,67.49171 -8.62109,94.78906 -0.31494,3.2475 -2.36031,5.76816 -5.77735,7.76172 -3.41703,1.99355 -8.10567,3.22967 -12.74414,3.50976 -4.63846,0.28009 -9.22619,-0.40784 -12.36718,-1.83984 -3.141,-1.432 -4.63772,-3.16743 -4.64649,-5.71485 -0.0965,-28.0186 -1.50668,-58.39017 -1.1875,-86.23437 0.23895,-20.84522 -1.02381,-44.62517 -1.14258,-65.55664 -0.11877,-20.93147 1.13623,-39.16184 5.43946,-47.87695 7.19717,-14.57607 16.95912,-38.50167 48.83203,-45.1836 10.80423,-2.26503 58.93667,-6.41611 68.14062,-6.51172 13.28689,-0.13796 26.69948,-2.09568 34.47657,-5.95703 8.53507,-4.23768 18.90947,-12.77589 24.80859,-17.5664 8.15242,-6.62037 11.25174,-7.75689 26.26172,-26.71289 9.50059,-11.99823 17.85642,-31.32059 33.78515,-41.85938 21.00065,-13.89447 26.68627,-12.787141 42.02735,-12.669921 3.22654,0.02466 8.77101,0.549959 12.71679,1.408203 l 1.28125,0.279297 0.97266,-0.88086 c 4.02992,-3.64481 8.92773,-9.068924 12.51367,-11.708984 3.49108,-2.570202 6.18914,-4.019173 8.16406,-4.650391 0.98747,-0.315608 1.76692,-0.446546 2.42774,-0.445312 z"
       id="path833"
       sodipodi:nodetypes="ssscssssscssssssssscssscsssssssccssssssssssssssssssssssssccsssssssssssssssssccsssssssccsssscccssssssssscssssscccsss" />
  </g>
</svg>
