<?xml version="1.0" encoding="UTF-8" standalone="no"?>
<!-- Created with Inkscape (http://www.inkscape.org/) -->

<svg
   xmlns:dc="http://purl.org/dc/elements/1.1/"
   xmlns:cc="http://creativecommons.org/ns#"
   xmlns:rdf="http://www.w3.org/1999/02/22-rdf-syntax-ns#"
   xmlns:svg="http://www.w3.org/2000/svg"
   xmlns="http://www.w3.org/2000/svg"
   xmlns:sodipodi="http://sodipodi.sourceforge.net/DTD/sodipodi-0.dtd"
   xmlns:inkscape="http://www.inkscape.org/namespaces/inkscape"
   width="75.595238mm"
   height="34.962795mm"
   viewBox="0 0 75.595238 34.962795"
   version="1.1"
   id="svg8"
   inkscape:version="0.92.3 (2405546, 2018-03-11)"
   sodipodi:docname="missingfig.svg">
  <defs
     id="defs2" />
  <sodipodi:namedview
     id="base"
     pagecolor="#ffffff"
     bordercolor="#666666"
     borderopacity="1.0"
     inkscape:pageopacity="0.0"
     inkscape:pageshadow="2"
     inkscape:zoom="1.4"
     inkscape:cx="-66.693979"
     inkscape:cy="-8.2763862"
     inkscape:document-units="mm"
     inkscape:current-layer="layer1"
     showgrid="false"
     inkscape:window-width="1920"
     inkscape:window-height="1013"
     inkscape:window-x="0"
     inkscape:window-y="0"
     inkscape:window-maximized="1" />
  <metadata
     id="metadata5">
    <rdf:RDF>
      <cc:Work
         rdf:about="">
        <dc:format>image/svg+xml</dc:format>
        <dc:type
           rdf:resource="http://purl.org/dc/dcmitype/StillImage" />
        <dc:title />
      </cc:Work>
    </rdf:RDF>
  </metadata>
  <g
     inkscape:label="Layer 1"
     inkscape:groupmode="layer"
     id="layer1"
     transform="translate(-65.670975,-59.286503)">
    <path
       style="opacity:1;fill:#b3b3b3;fill-opacity:0.44444448;stroke:none;stroke-width:0.79374999;stroke-linecap:butt;stroke-linejoin:round;stroke-miterlimit:4;stroke-dasharray:0.79374999, 3.17499995;stroke-dashoffset:0;stroke-opacity:1"
       d="M 65.670975,59.286503 H 141.26621 V 94.249299 H 65.670975 Z"
       id="rect4518"
       inkscape:connector-curvature="0" />
    <g
       aria-label="!"
       style="font-style:normal;font-weight:normal;font-size:20.84877396px;line-height:1.25;font-family:sans-serif;letter-spacing:0px;word-spacing:0px;fill:#ff0000;fill-opacity:1;stroke:none;stroke-width:0.36913177"
       id="text4525"
       transform="matrix(0.71677197,0,0,0.71677197,55.213066,16.53437)">
      <path
         id="path821"
         style="fill:#ff0000;fill-opacity:1;stroke-width:0.36913177"
         d="m 42.665286,91.164797 h 2.066553 v 2.585737 h -2.066553 z m 0,-12.613101 h 2.066553 v 6.667943 l -0.203601,3.634284 h -1.649171 l -0.213781,-3.634284 z m 1.056125,-9.196807 a 1.0001,1.0001 0 0 0 -0.876953,0.478516 L 26.141333,97.19278 a 1.0001,1.0001 0 0 0 0.853516,1.521485 H 60.403052 A 1.0001,1.0001 0 0 0 61.256568,97.19278 L 44.55149,69.833405 a 1.0001,1.0001 0 0 0 -0.830079,-0.478516 z m -0.02344,2.919922 14.923828,24.439454 h -29.8457 z"
         inkscape:connector-curvature="0" />
    </g>
    <g
       id="g847"
       transform="matrix(0.84955123,0,0,0.84955123,21.005646,9.3944446)"
       style="stroke-width:1.17709208">
      <path
         inkscape:connector-curvature="0"
         d="m 133.54244,73.707169 q 0,-1.03353 -0.42892,-1.60197 -0.42374,-0.56844 -1.19372,-0.56844 -0.76481,0 -1.19373,0.56844 -0.42375,0.56844 -0.42375,1.60197 0,1.02836 0.42375,1.5968 0.42892,0.56844 1.19373,0.56844 0.76998,0 1.19372,-0.56844 0.42892,-0.56844 0.42892,-1.5968 z m 0.95084,2.24276 q 0,1.47795 -0.65629,2.19625 -0.65629,0.72347 -2.01021,0.72347 -0.50126,0 -0.94568,-0.0775 -0.44442,-0.0723 -0.863,-0.22737 v -0.92501 q 0.41858,0.22737 0.82683,0.3359 0.40824,0.10852 0.83199,0.10852 0.93534,0 1.40043,-0.49093 0.46509,-0.48576 0.46509,-1.47278 v -0.47025 q -0.29456,0.51159 -0.75448,0.76481 -0.45992,0.25321 -1.10071,0.25321 -1.06453,0 -1.71565,-0.81132 -0.65113,-0.81132 -0.65113,-2.14974 0,-1.34358 0.65113,-2.1549 0.65112,-0.81132 1.71565,-0.81132 0.64079,0 1.10071,0.25321 0.45992,0.25321 0.75448,0.76481 v -0.8785 h 0.95084 z m -6.66625,-2.77502 v 3.49332 h -0.95085 v -3.46232 q 0,-0.82165 -0.32039,-1.2299 -0.3204,-0.40824 -0.96119,-0.40824 -0.76997,0 -1.21439,0.49092 -0.44442,0.49093 -0.44442,1.33842 v 3.27112 h -0.95601 v -5.78776 h 0.95601 v 0.89917 q 0.34107,-0.52193 0.80099,-0.78031 0.46508,-0.25838 1.0697,-0.25838 0.99735,0 1.50895,0.62011 0.5116,0.61495 0.5116,1.81385 z m -7.7463,-2.29444 h 0.95084 v 5.78776 h -0.95084 z m 0,-2.25309 h 0.95084 v 1.20406 h -0.95084 z m -1.82935,2.42362 v 0.89917 q -0.40307,-0.2067 -0.83716,-0.31005 -0.43408,-0.10336 -0.89917,-0.10336 -0.70796,0 -1.06453,0.21704 -0.3514,0.21704 -0.3514,0.65113 0,0.33073 0.25321,0.52193 0.25322,0.18603 1.01803,0.35657 l 0.32556,0.0723 q 1.01286,0.21704 1.43661,0.61495 0.42891,0.39274 0.42891,1.10071 0,0.80615 -0.64079,1.27641 -0.63562,0.47025 -1.75183,0.47025 -0.46509,0 -0.97151,-0.093 -0.50127,-0.0879 -1.05937,-0.26872 v -0.98185 q 0.5271,0.27388 1.03869,0.41341 0.5116,0.13436 1.01286,0.13436 0.6718,0 1.03353,-0.22738 0.36174,-0.23254 0.36174,-0.65112 0,-0.38758 -0.26355,-0.59428 -0.25839,-0.20671 -1.14205,-0.39791 l -0.33073,-0.0775 q -0.88367,-0.18603 -1.27641,-0.56844 -0.39274,-0.38757 -0.39274,-1.05936 0,-0.81649 0.57878,-1.26091 0.57877,-0.44441 1.64331,-0.44441 0.5271,0 0.99218,0.0775 0.46509,0.0775 0.85783,0.23254 z m -5.51904,0 v 0.89917 q -0.40308,-0.2067 -0.83716,-0.31005 -0.43408,-0.10336 -0.89917,-0.10336 -0.70797,0 -1.06454,0.21704 -0.3514,0.21704 -0.3514,0.65113 0,0.33073 0.25322,0.52193 0.25321,0.18603 1.01802,0.35657 l 0.32557,0.0723 q 1.01285,0.21704 1.4366,0.61495 0.42892,0.39274 0.42892,1.10071 0,0.80615 -0.64079,1.27641 -0.63562,0.47025 -1.75183,0.47025 -0.46509,0 -0.97152,-0.093 -0.50126,-0.0879 -1.05937,-0.26872 v -0.98185 q 0.5271,0.27388 1.0387,0.41341 0.51159,0.13436 1.01286,0.13436 0.67179,0 1.03352,-0.22738 0.36174,-0.23254 0.36174,-0.65112 0,-0.38758 -0.26355,-0.59428 -0.25838,-0.20671 -1.14205,-0.39791 l -0.33073,-0.0775 q -0.88367,-0.18603 -1.27641,-0.56844 -0.39274,-0.38757 -0.39274,-1.05936 0,-0.81649 0.57878,-1.26091 0.57877,-0.44441 1.64331,-0.44441 0.5271,0 0.99219,0.0775 0.46509,0.0775 0.85783,0.23254 z m -6.62492,-0.17053 h 0.95084 v 5.78776 h -0.95084 z m 0,-2.25309 h 0.95084 v 1.20406 h -0.95084 z m -9.095054,0.32556 h 1.55546 l 1.968874,5.25033 1.97921,-5.25033 h 1.55546 v 7.71529 h -1.01803 v -6.77478 l -1.98954,5.29167 h -1.04903 l -1.989546,-5.29167 v 6.77478 h -1.012858 z"
         style="font-style:normal;font-weight:normal;font-size:medium;line-height:1.25;font-family:sans-serif;text-align:center;letter-spacing:0px;word-spacing:0px;text-anchor:middle;fill:#000000;fill-opacity:1;stroke:none;stroke-width:0.31143892"
         id="path836" />
      <path
         inkscape:connector-curvature="0"
         d="m 131.32552,84.649141 v 0.46508 h -4.37183 q 0.062,0.98186 0.58911,1.49862 0.53227,0.5116 1.47795,0.5116 0.54777,0 1.05937,-0.13436 0.51676,-0.13436 1.02319,-0.40308 v 0.89917 q -0.5116,0.21704 -1.04903,0.33073 -0.53744,0.11369 -1.09037,0.11369 -1.38493,0 -2.19625,-0.80615 -0.80615,-0.80615 -0.80615,-2.18075 0,-1.4211 0.76481,-2.25309 0.76998,-0.83716 2.07222,-0.83716 1.16789,0 1.84485,0.75448 0.68213,0.74931 0.68213,2.04122 z m -0.95085,-0.27906 q -0.0103,-0.78031 -0.43925,-1.2454 -0.42374,-0.46509 -1.12654,-0.46509 -0.79582,0 -1.27641,0.44959 -0.47542,0.44958 -0.54777,1.26607 z m -4.78007,-1.48828 q -0.16019,-0.093 -0.3514,-0.13436 -0.18603,-0.0465 -0.41341,-0.0465 -0.80615,0 -1.24023,0.5271 -0.42892,0.52194 -0.42892,1.50379 v 3.04891 h -0.95601 v -5.78776 h 0.95601 v 0.89917 q 0.29973,-0.5271 0.78032,-0.78032 0.48059,-0.25838 1.16789,-0.25838 0.0982,0 0.21704,0.0155 0.11885,0.0103 0.26355,0.0362 z m -10.16992,2.61483 v -3.50366 h 0.95085 v 3.46749 q 0,0.82165 0.32039,1.23506 0.3204,0.40825 0.96118,0.40825 0.76998,0 1.2144,-0.49093 0.44959,-0.49093 0.44959,-1.33842 v -3.28145 h 0.95084 v 5.78776 h -0.95084 v -0.88884 q -0.34624,0.5271 -0.80616,0.78549 -0.45475,0.25321 -1.05936,0.25321 -0.99736,0 -1.51412,-0.62012 -0.51677,-0.62011 -0.51677,-1.81384 z m 2.39262,-3.64319 z m -5.20382,2.96623 q 0,-1.03353 -0.42891,-1.60197 -0.42375,-0.56844 -1.19373,-0.56844 -0.76481,0 -1.19373,0.56844 -0.42374,0.56844 -0.42374,1.60197 0,1.02836 0.42374,1.5968 0.42892,0.56844 1.19373,0.56844 0.76998,0 1.19373,-0.56844 0.42891,-0.56844 0.42891,-1.5968 z m 0.95085,2.24276 q 0,1.47794 -0.65629,2.19624 -0.65629,0.72347 -2.01022,0.72347 -0.50126,0 -0.94568,-0.0775 -0.44441,-0.0724 -0.86299,-0.22738 v -0.92501 q 0.41858,0.22738 0.82682,0.3359 0.40824,0.10852 0.83199,0.10852 0.93534,0 1.40043,-0.49092 0.46509,-0.48576 0.46509,-1.47278 v -0.47026 q -0.29455,0.5116 -0.75448,0.76481 -0.45992,0.25322 -1.1007,0.25322 -1.06454,0 -1.71566,-0.81132 -0.65112,-0.81132 -0.65112,-2.14974 0,-1.34359 0.65112,-2.15491 0.65112,-0.81132 1.71566,-0.81132 0.64078,0 1.1007,0.25322 0.45993,0.25321 0.75448,0.76481 v -0.8785 h 0.95085 z m -7.69462,-5.06946 h 0.95084 v 5.78776 h -0.95084 z m 0,-2.25309 h 0.95084 v 1.20406 h -0.95084 z m -5.29167,0.32556 h 4.43384 v 0.8785 h -3.38998 v 2.27376 h 3.05925 v 0.8785 h -3.05925 v 3.68453 h -1.04386 z"
         style="font-style:normal;font-weight:normal;font-size:medium;line-height:1.25;font-family:sans-serif;text-align:center;letter-spacing:0px;word-spacing:0px;text-anchor:middle;fill:#000000;fill-opacity:1;stroke:none;stroke-width:0.31143892"
         id="path848" />
    </g>
  </g>
</svg>
