<?xml version="1.0" encoding="UTF-8" standalone="no"?>
<!-- Created with Inkscape (http://www.inkscape.org/) -->

<svg
   xmlns:dc="http://purl.org/dc/elements/1.1/"
   xmlns:cc="http://creativecommons.org/ns#"
   xmlns:rdf="http://www.w3.org/1999/02/22-rdf-syntax-ns#"
   xmlns:svg="http://www.w3.org/2000/svg"
   xmlns="http://www.w3.org/2000/svg"
   xmlns:sodipodi="http://sodipodi.sourceforge.net/DTD/sodipodi-0.dtd"
   xmlns:inkscape="http://www.inkscape.org/namespaces/inkscape"
   width="29.6mm"
   height="10.8mm"
   viewBox="0 0 29.6 10.8"
   version="1.1"
   id="svg8"
   inkscape:version="0.92.3 (2405546, 2018-03-11)"
   sodipodi:docname="headphone-cross-section.svg">
  <defs
     id="defs2" />
  <sodipodi:namedview
     id="base"
     pagecolor="#ffffff"
     bordercolor="#666666"
     borderopacity="1.0"
     inkscape:pageopacity="0.0"
     inkscape:pageshadow="2"
     inkscape:zoom="11.313708"
     inkscape:cx="42.765372"
     inkscape:cy="16.676709"
     inkscape:document-units="mm"
     inkscape:current-layer="layer1"
     showgrid="false"
     inkscape:window-width="2560"
     inkscape:window-height="1373"
     inkscape:window-x="0"
     inkscape:window-y="0"
     inkscape:window-maximized="1"
     inkscape:object-paths="true" />
  <metadata
     id="metadata5">
    <rdf:RDF>
      <cc:Work
         rdf:about="">
        <dc:format>image/svg+xml</dc:format>
        <dc:type
           rdf:resource="http://purl.org/dc/dcmitype/StillImage" />
        <dc:title />
      </cc:Work>
    </rdf:RDF>
  </metadata>
  <g
     inkscape:label="Layer 1"
     inkscape:groupmode="layer"
     id="layer1"
     transform="translate(-41.577381,39.615479)">
    <path
       style="fill:#0000ff;fill-opacity:1;stroke-width:0.99999994"
       d="M 55.9375,0 C 52.137328,0.00342269 48.338631,0.07411379 44.543185,0.21192234 40.208311,0.36931693 35.877678,0.61426284 31.553932,0.94653515 26.924383,1.302308 22.30273,1.7581966 17.692223,2.3139249 12.505076,2.9391586 7.3320375,3.6907679 2.1777344,4.5683594 L 0.00390625,32.460938 c 4.55733225,1.389013 9.15997325,2.606817 13.79822275,3.651965 4.245468,0.956642 8.520769,1.768631 12.818464,2.434855 4.917378,0.762286 9.864073,1.333742 14.828941,1.712703 4.815614,0.367568 9.648325,0.554041 14.487966,0.557898 5.687072,-0.01798 11.363977,-0.288108 17.014223,-0.807876 4.620134,-0.425008 9.222443,-1.016929 13.797909,-1.774394 4.471661,-0.740279 8.917683,-1.638677 13.329648,-2.693913 3.95611,-0.946206 7.88483,-2.018514 11.7801,-3.216004 L 109.92383,4.9082031 C 106.49525,4.3022213 103.05801,3.7520531 99.613486,3.2578225 94.883776,2.5791897 90.140325,2.0060235 85.386667,1.5386454 81.066852,1.1139225 76.738608,0.77655935 72.40459,0.52679715 66.923008,0.21090277 61.432189,0.03514104 55.9375,0 Z"
       transform="matrix(0.26458333,0,0,0.26458333,41.577381,-39.615479)"
       id="path4517"
       inkscape:connector-curvature="0"
       sodipodi:nodetypes="csssccssscsssccsssc" />
  </g>
</svg>
