<?xml version="1.0" encoding="UTF-8" standalone="no"?>
<!-- Created with Inkscape (http://www.inkscape.org/) -->

<svg
   version="1.1"
   id="svg2"
   width="100mm"
   height="99.999992mm"
   viewBox="0 0 377.95277 377.95273"
   sodipodi:docname="wings-of-fire.svg"
   inkscape:version="1.1 (c4e8f9ed74, 2021-05-24)"
   xmlns:inkscape="http://www.inkscape.org/namespaces/inkscape"
   xmlns:sodipodi="http://sodipodi.sourceforge.net/DTD/sodipodi-0.dtd"
   xmlns="http://www.w3.org/2000/svg"
   xmlns:svg="http://www.w3.org/2000/svg">
  <defs
     id="defs6" />
  <sodipodi:namedview
     id="namedview4"
     pagecolor="#505050"
     bordercolor="#ffffff"
     borderopacity="1"
     inkscape:pageshadow="0"
     inkscape:pageopacity="0"
     inkscape:pagecheckerboard="1"
     showgrid="false"
     inkscape:zoom="3.1319346"
     inkscape:cx="229.57057"
     inkscape:cy="101.2154"
     inkscape:window-width="1920"
     inkscape:window-height="1027"
     inkscape:window-x="0"
     inkscape:window-y="0"
     inkscape:window-maximized="1"
     inkscape:current-layer="g8"
     units="mm"
     inkscape:document-units="mm" />
  <g
     inkscape:groupmode="layer"
     inkscape:label="Image"
     id="g8"
     transform="translate(537.19984,311.06659)">
    <path
       id="path129"
       style="stroke-width:7.38621;stroke-linejoin:round"
       d="m -348.22556,-311.06659 c -34.42593,6e-5 -66.70182,9.20554 -94.50042,25.28921 -28.55036,16.51862 -52.378,40.29249 -68.96173,68.80039 -16.2215,27.88527 -25.51207,60.3 -25.51213,94.88468 -4.5e-4,21.65921 3.64295,42.467439 10.35062,61.845059 6.93479,20.03376 17.14488,38.538427 29.98982,54.8735215 13.48456,17.1484985 29.8729,31.9060085 48.42405,43.5314745 15.23873,9.549693 31.93688,16.985986 49.6837,21.898164 16.08269,4.451573 33.0266,6.830214 50.52609,6.830235 31.5252,6.46e-4 61.2475,-7.718205 87.37982,-21.369426 23.14106,-12.088652 43.46698,-28.829276 59.73672,-48.980952 15.39564,-19.068987 27.15924,-41.192311 34.23929,-65.318456 4.96151,-16.906945 7.62303,-34.79744 7.62265,-53.30962 -5e-5,-30.24035 -7.10316,-58.82164 -19.73191,-84.1665 -11.68198,-23.44483 -28.09218,-44.1203 -47.98201,-60.77784 -14.14335,-11.84492 -30.04613,-21.65822 -47.2594,-28.99099 -22.72811,-9.68204 -47.74096,-15.03949 -74.00516,-15.03895 z m 72.85597,37.04356 c 16.91499,8.09783 30.49453,17.60291 44.31698,31.0223 15.10138,14.66098 25.45509,28.90685 34.53926,47.5104 16.43319,33.65372 21.07226,69.64277 13.71905,106.466618 -12.03693,60.279284 -56.74711,109.692098 -115.98383,128.186008 -21.81314,6.810143 -48.92362,9.072459 -71.59541,5.975053 -38.08643,-5.203342 -70.49503,-21.228642 -97.44526,-48.178477 -25.84406,-25.843697 -42.18128,-57.906194 -47.95576,-94.108965 -1.69028,-10.597097 -1.68591,-39.477387 0.009,-50.149157 6.3612,-40.04528 26.7017,-76.55358 57.27131,-102.78579 31.70854,-27.20955 71.66169,-41.08109 103.89227,-40.68143 32.23056,0.39963 56.52624,5.87297 79.23279,16.74344 z m -76.49898,1.38242 c -3.06357,1.43198 -5.47889,2.21161 -5.63049,4.81952 -0.0536,0.91981 -0.25098,2.78244 -1.03366,3.87413 -1.72908,2.41175 -1.37435,2.90503 -0.25631,7.68518 1.63866,7.00604 1.52939,8.15187 -0.97482,10.21052 -1.67909,1.38033 -2.2197,2.454 -2.50433,4.97919 -0.19964,1.77102 -0.78737,3.57331 -1.30677,4.00438 -0.5194,0.43106 -0.94541,1.37204 -0.94541,2.09251 0,0.95872 -1.3469,1.92234 -5.02121,3.5968 -5.98456,2.72724 -9.29461,6.23209 -11.52571,12.19798 -2.58175,6.90353 -6.0406,8.71002 -12.38706,6.47085 -1.62122,-0.572 -3.13297,-0.8546 -3.35729,-0.63028 -1.06978,1.06978 6.7513,5.07381 9.95421,5.09685 3.07654,0.0222 8.65473,-3.06647 10.6349,-5.891 5.91914,-8.44319 6.70634,-9.1712 12.54252,-11.60972 3.78928,-1.58326 4.1639,-0.33163 2.4665,8.22302 -1.63406,8.23548 -1.42243,18.99656 0.79835,40.22857 1.14921,10.98708 1.38553,14.483 1.40343,16.23177 -0.9379,0.72638 -1.28567,0.99775 -2.2396,1.59252 -1.23057,0.76723 -3.59873,2.34938 -5.26493,3.51274 -5.19485,3.62709 -9.03524,2.5134 -14.76111,-4.27329 -2.71554,-3.21866 -2.79062,-3.44881 -3.55478,-11.01306 -0.65207,-6.45463 -1.09482,-8.2218 -2.68497,-10.73154 -2.25311,-3.55612 -3.85311,-7.83397 -3.85311,-10.30295 0,-1.06268 -0.8836,-2.68217 -2.20178,-4.04219 -1.81776,-1.87546 -2.71212,-2.26898 -5.15986,-2.26898 -1.9405,0 -3.63041,1.50424 -3.63041,1.50424 0,0 1.28128,-0.12499 2.36563,0.14715 0.57374,0.14393 1.59996,0.43443 2.42868,1.40344 0.6061,0.70869 0.59098,2.37143 0.94963,3.45812 0.49459,1.49857 2.14126,2.99457 1.64711,4.55901 0,0 -0.85587,-1.88426 -1.94125,-3.23543 -0.88209,-1.09812 -2.06013,-1.36923 -2.83625,-2.2942 -2.17835,-2.59617 -5.76271,-2.46588 -8.86591,-1.05047 -1.7308,0.78946 -2.19338,1.88244 -2.19338,1.88244 0,0 1.16502,-0.60223 2.68918,-0.64709 2.31634,-0.0682 3.42269,0.22075 5.31956,2.11773 1.20555,1.20555 0.77251,2.5205 1.78999,3.22283 1.40128,0.96724 2.5001,3.05894 2.5001,3.05894 0,0 -3.77617,-2.39762 -4.21866,-3.11357 -0.67049,-1.08486 -6.75163,-0.81011 -8.45412,0.38236 -1.33018,0.93169 -1.91186,3.07157 -1.91186,3.07157 0,0 0.97337,-0.78311 1.63453,-1.07148 1.09239,-0.47648 1.79751,-0.67933 2.65136,-0.62187 0.5713,0.0385 1.16199,-0.051 1.75639,0.39916 0.62303,0.47197 0.84139,1.06015 2.13033,1.81521 0.58089,0.34028 0.88797,1.46343 1.31938,1.90345 0.83541,0.85206 1.92866,0.56305 1.92866,0.56305 0.92661,0.45722 2.73121,7.60149 2.73121,11.11811 0,1.82889 0.34068,5.27731 0.75633,7.66419 0.65282,3.74868 1.13053,4.68123 3.52535,6.84482 2.89361,2.61419 7.90957,5.13247 12.89549,6.47505 1.60954,0.43341 2.77337,0.93691 2.58836,1.1219 -0.90163,0.90166 -14.41433,1.3537 -24.17328,0.80676 -13.02998,-0.73028 -14.31487,-1.21829 -16.60574,-6.27338 -4.3638,-9.62927 -1.78218,-30.59177 6.15572,-49.97266 5.48094,-13.38213 17.37031,-36.13051 21.21096,-40.58154 1.09743,-1.27184 1.82968,-2.747 1.62612,-3.27743 -0.20352,-0.53042 0.61114,-2.35005 1.80681,-4.04639 1.67763,-2.38004 2.23911,-3.99898 2.46229,-7.08433 0.25758,-3.56109 0.0848,-4.23849 -1.5673,-6.20194 -1.57085,-1.86685 -2.31931,-2.20599 -4.89095,-2.20599 -1.6702,0 -3.03794,0.31048 -3.03794,0.68912 0,0.37863 0.45761,0.6891 1.01684,0.6891 0.55922,0 1.53249,0.78842 2.16395,1.75216 0.97089,1.48177 1.02645,2.16962 0.34456,4.44557 -1.01827,3.39869 -3.91094,6.88265 -5.71452,6.88265 -0.75984,0 -2.20518,0.56838 -3.21022,1.26056 -1.00503,0.69218 -6.16595,3.20015 -11.46687,5.57585 -28.63198,12.83188 -46.66851,26.14813 -60.37227,44.56489 -12.94654,17.39911 -21.02022,36.31753 -24.15908,56.40542 -2.91887,18.68 -1.5704,38.37131 4.09522,58.792655 4.72282,17.023054 13.78786,36.382 25.88763,55.283828 2.6507,4.140789 3.88147,5.457157 5.37838,5.756539 1.06778,0.213629 2.46587,0.965914 3.10517,1.672331 2.66027,2.939562 8.98337,2.204123 10.54667,-1.226937 0.717,-1.573648 0.67088,-1.700448 -0.42859,-1.218546 -4.58969,2.011663 -8.45834,0.631099 -8.45834,-3.021119 0,-1.111797 -1.13769,-3.381364 -2.82786,-5.630493 -6.07204,-8.080105 -10.24832,-18.435328 -10.24832,-25.408629 0,-7.184025 2.23803,-9.170582 7.03812,-6.24395 2.29852,1.40139 6.03806,1.874816 6.03806,0.764741 0,-0.33759 -0.7605,-0.803745 -1.69335,-1.037876 -2.16075,-0.542291 -4.75018,-4.944427 -6.17252,-10.496223 -1.51171,-5.900616 -1.44229,-16.380983 0.12607,-19.51763 1.85689,-3.713983 3.27156,-3.47968 7.83646,1.302578 2.83488,2.969853 4.51814,4.201867 5.74394,4.201867 2.03285,0 2.3139,-1.100523 0.43278,-1.697566 -2.25885,-0.716938 -3.1724,-4.287942 -3.1724,-12.41228 0,-8.58944 1.05416,-11.68207 4.2649,-12.4879 3.72661,-0.93532 6.32545,1.78698 16.43346,17.223388 5.04431,7.70349 5.80696,9.259691 5.80696,11.874463 0,1.655185 0.24726,3.008513 0.55045,3.008513 0.30319,0 1.22087,-1.381231 2.04208,-3.071547 1.76484,-3.632555 3.59814,-4.697667 14.12245,-8.218825 12.78032,-4.275942 23.17422,-5.460492 31.9047,-3.630403 7.63581,1.600626 9.20102,3.394314 11.95847,13.735854 1.92196,7.208099 4.37873,13.933478 5.65149,15.467047 1.45524,1.753458 -0.25067,0.76388 -4.9918,-2.899289 -10.49736,-8.110698 -18.21653,-12.071936 -23.53039,-12.071936 -2.20965,0 -3.19875,0.463336 -5.14728,2.411879 -2.0987,2.098707 -2.37227,2.748866 -2.08831,4.991799 0.57086,4.508972 3.27272,12.779085 5.4288,16.618342 l 2.08412,3.714435 -2.07573,-0.415985 c -3.48645,-0.697296 -8.28883,-3.270418 -10.08024,-5.399394 -0.93428,-1.110312 -2.03399,-3.319964 -2.44128,-4.911963 -1.12096,-4.381591 -1.23225,-4.610731 -2.54632,-5.101045 -0.6712,-0.25046 -1.62717,-1.018406 -2.12194,-1.705956 -0.49477,-0.68755 -1.42617,-1.261143 -2.06732,-1.273169 -0.64115,-0.01291 -1.76514,-0.477751 -2.50011,-1.03366 -1.92601,-1.456743 -5.63307,-1.270566 -7.26921,0.365558 -1.8601,1.8601 -1.80836,3.036114 0.0882,2.021107 2.28663,-1.223752 4.39224,0.188889 6.41204,4.306896 0.98596,2.010135 3.10091,4.845916 4.70188,6.298594 2.62858,2.385094 2.70732,2.539325 0.79415,1.592494 -1.16526,-0.576691 -3.30346,-2.493523 -4.7481,-4.25649 -2.30693,-2.815321 -2.88612,-3.164162 -4.76491,-2.87827 -1.17651,0.178993 -2.65296,0.05551 -3.28165,-0.273113 -0.73243,-0.382661 -1.84412,-0.228947 -3.09676,0.424396 -1.0752,0.560771 -2.40194,1.018729 -2.9455,1.021053 -1.89508,0.0086 -4.17246,2.898191 -4.17246,5.290127 0,2.546424 1.03405,3.066233 1.73117,0.869791 0.70091,-2.208404 3.47546,-3.196476 5.02962,-1.789988 0.69398,0.628044 1.57537,1.142905 1.95807,1.142905 0.38271,0 1.04775,0.776164 1.47906,1.722758 0.62425,1.370087 1.29117,1.718563 3.25643,1.718541 1.35783,0 4.00657,0.661799 5.8868,1.470663 3.97482,1.709915 4.1255,2.508604 0.1932,1.025248 -1.46716,-0.553456 -4.06528,-0.925403 -5.76915,-0.827754 -1.70387,0.09767 -4.09172,0.224386 -5.30695,0.285721 -2.60369,0.131448 -5.70611,3.091189 -5.70611,5.441389 0,1.758535 1.0255,2.090424 1.62612,0.525252 0.44842,-1.168592 4.5521,-1.41931 6.47085,-0.394988 2.66044,1.4203 4.32103,1.645977 12.89971,1.768991 10.14575,0.145431 13.57074,1.129954 24.27831,6.966674 5.50918,3.003048 5.80727,3.085058 7.4247,2.025281 2.81456,-1.844159 2.26588,-4.140811 -5.01282,-20.979859 -0.46771,-1.082044 -0.57467,-1.132665 5.17247,2.521124 5.60452,3.563131 14.66416,7.748217 16.77382,7.748217 1.87615,0 1.89549,0.03937 1.53367,3.613601 -1.10895,10.955321 -4.68779,23.673738 -7.69781,27.358269 -1.15654,1.415718 -1.21562,1.391321 -7.7062,-3.416107 -7.97742,-5.908662 -16.99203,-10.442525 -24.75733,-12.450101 -4.76378,-1.231583 -7.08424,-1.444674 -12.73582,-1.168118 -9.23146,0.45174 -13.5566,2.126308 -19.26551,7.466712 -5.05718,4.730755 -7.28021,9.163461 -7.79023,15.517453 -1.15179,14.3488388 8.80764,26.679152 24.96321,30.90464 13.20981,3.455026 35.58572,1.000636 48.0188,-5.2691295 l 3.96236,-2.0000673 3.26904,1.6555286 c 7.22359,3.6551222 22.46289,8.0149632 31.14837,8.9121402 5.28199,0.545604 17.20555,0.419513 23.06398,-0.243705 23.06974,-2.611696 39.78044,-13.0414418 43.99763,-27.4633407 2.08382,-7.1261973 0.75441,-14.5934263 -3.6346,-20.4252203 -6.2952,-8.364514 -23.24377,-12.209515 -37.615,-8.533976 -6.10803,1.56216 -10.25607,3.77448 -14.63089,7.807056 -13.14466,12.116319 -7.76583,28.5974686 8.84491,27.1061742 4.4399,-0.3986237 7.21568,-1.6735999 10.91643,-5.0170133 2.60096,-2.3498119 4.7448,-6.1422339 3.93295,-6.9540679 -0.23028,-0.23028 -1.64832,0.692542 -3.15141,2.050495 -4.91928,4.4442596 -12.5965,5.1412756 -15.78637,1.432843 -3.28238,-3.815979 -0.13188,-9.539302 7.04232,-12.786249 3.06104,-1.385384 4.60946,-1.592279 11.78619,-1.584104 8.81606,0.01076 11.94098,0.922822 15.08888,4.403534 1.67309,1.849989 2.24287,7.92181 1.07568,11.458479 -2.76219,8.3695051 -12.83117,13.0678174 -29.71553,13.8661189 -13.18661,0.6234828 -23.62716,-1.6180735 -35.45526,-7.613779 l -4.26069,-2.1597405 2.99172,-4.4749804 c 3.41877,-5.114921 6.90669,-11.950665 9.66007,-18.93356 2.04566,-5.187981 5.84899,-19.480068 5.84899,-21.979915 0,-1.194881 0.89522,-1.943207 4.12201,-3.43291 2.26765,-1.04689 6.63431,-3.408534 9.70209,-5.252327 3.0678,-1.843815 5.4242,-2.978846 5.23551,-2.521103 -7.13087,17.297824 -7.39721,18.340712 -5.2229,20.366402 1.84224,1.716304 2.59046,1.558244 7.92049,-1.651333 8.65846,-5.213841 18.21607,-7.636003 27.27005,-6.916269 4.45811,0.354371 5.78653,0.197279 8.26086,-0.958017 4.29597,-2.005683 8.11377,-2.177963 8.11377,-0.369753 0,1.078988 1.05946,1.411694 1.61771,0.508407 0.57202,-0.925554 -1.46152,-4.852005 -2.91609,-5.630471 -2.19842,-1.176552 -11.08711,-1.360514 -13.76107,-0.285742 -3.95057,1.587912 -4.08369,0.94853 -0.17232,-0.827754 2.0364,-0.924779 4.62884,-1.680742 5.76076,-1.680742 1.48307,0 2.83085,-0.771947 4.81532,-2.756417 1.51455,-1.514551 3.19972,-2.752223 3.74804,-2.752223 1.81083,0 3.65983,1.403068 3.65983,2.777436 0,1.676698 1.18202,1.789278 1.54207,0.147153 0.45957,-2.09619 -0.85032,-4.761003 -2.77742,-5.651511 -1.02313,-0.472781 -2.84384,-1.328868 -4.04219,-1.899234 -1.24488,-0.592503 -2.56185,-0.796623 -3.07576,-0.479019 -0.49471,0.30575 -1.77222,0.488679 -2.83626,0.407595 -2.53855,-0.193407 -4.40248,0.860647 -5.60525,3.168185 -0.53689,1.030024 -2.0119,2.441396 -3.27746,3.134582 l -2.30261,1.260562 2.14294,-1.949661 c 1.17653,-1.071845 2.83025,-3.342553 3.67661,-5.046422 2.72473,-5.485341 5.41928,-7.421599 7.47091,-5.369964 0.64255,0.642544 0.82356,0.573163 0.82356,-0.306739 0,-2.721006 -5.34413,-4.242076 -7.95832,-2.264813 -0.73496,0.555909 -2.02283,1.021612 -2.86144,1.03366 -0.83862,0.01291 -1.85533,0.641941 -2.26062,1.399216 -0.40527,0.757276 -1.17722,1.37822 -1.71854,1.37822 -1.21547,0 -2.08496,1.611361 -2.6976,5.004406 -0.61296,3.394831 -3.72741,6.860828 -8.13899,9.059207 -3.21651,1.602863 -6.03387,2.278172 -6.03387,1.445427 0,-0.177916 0.91768,-2.127642 2.03791,-4.332109 1.12023,-2.204467 2.51858,-5.853738 3.10515,-8.109579 0.58657,-2.255841 1.397,-5.108424 1.8026,-6.34061 0.62047,-1.884884 0.51341,-2.604274 -0.6765,-4.529603 -4.62813,-7.488463 -14.17516,-4.322536 -31.91308,10.584492 l -2.57995,2.168152 v -2.302611 c 1.6e-4,-1.267296 -0.64665,-5.463849 -1.43703,-9.323931 -1.35933,-6.638701 -1.37642,-7.222728 -0.33196,-10.815569 1.99964,-6.87849 6.68948,-9.013832 19.6689,-8.954152 9.88272,0.0454 17.68603,1.740847 28.91296,6.277571 6.27129,2.534162 6.60314,2.778017 8.10119,5.899412 0.85923,1.79031 1.86825,3.252217 2.2396,3.252217 0.3713,0 0.67649,-1.579371 0.67649,-3.512746 0,-2.814181 0.38834,-4.01713 1.95385,-6.025459 1.07551,-1.379704 3.94313,-5.738165 6.37002,-9.685275 6.65155,-10.81815 11.01466,-14.67556 14.32832,-12.66859 2.60612,1.57843 3.84967,5.7872 3.83631,12.96273 -0.0129,7.460922 -1.10713,10.855947 -3.77328,11.702159 -1.73104,0.549412 -1.13131,1.722758 0.8824,1.722758 0.90512,0 3.19235,-1.68625 5.82377,-4.294289 3.61227,-3.580148 4.52911,-4.169424 5.52544,-3.550567 2.44815,1.520618 3.26042,4.463923 3.21442,11.630738 -0.0682,10.611018 -3.37706,19.992196 -7.32804,20.782365 -1.04521,0.209112 -1.7308,0.654914 -1.52526,0.987449 0.65648,1.062207 4.00977,0.639704 6.14309,-0.773153 2.62883,-1.741001 4.91365,-1.753522 5.83638,-0.02947 1.39061,2.598379 1.56552,7.244392 0.43701,11.765196 -1.41688,5.675951 -6.49362,16.027323 -10.09287,20.580699 -2.01969,2.555094 -2.66983,3.92161 -2.34882,4.93296 1.05732,3.331365 -5.12717,5.569523 -8.05918,2.91609 -1.10215,-0.997452 -1.26056,-1.006208 -1.26056,-0.07551 0,2.029046 2.36087,4.046281 5.1683,4.416141 2.1783,0.286969 3.26962,0.0086 5.26072,-1.348789 1.38084,-0.942248 3.18989,-1.929525 4.02117,-2.193366 2.96654,-0.941539 16.69717,-24.292229 23.03457,-39.173915 4.76679,-11.193539 8.45788,-22.934404 10.8492,-34.493028 2.00198,-9.676578 2.14319,-11.301338 2.20177,-25.816198 0.0497,-12.325 -0.18996,-16.75579 -1.17231,-21.68578 -2.96873,-14.89763 -7.81467,-28.37644 -14.56636,-40.49142 -5.99371,-10.75488 -13.48925,-20.43495 -22.50661,-29.07871 -12.41271,-11.89843 -27.09527,-20.9998 -50.99793,-31.61056 -4.0608,-1.80264 -7.73806,-3.70347 -8.17261,-4.22706 -0.43455,-0.52362 -1.46903,-0.95382 -2.29842,-0.95382 -0.367,0 -1.08394,0.38603 -1.56308,0.12607 -1.54779,-0.83991 -2.99606,-3.51234 -4.24808,-5.4162 -2.15923,-3.28335 -1.23636,-8.10782 2.0295,-7.79023 0.34993,0.034 1.34459,-0.0129 1.34459,-0.0129 0,0 -2.07588,-1.36561 -3.75226,-1.36561 -2.46291,0 -3.31985,0.34705 -4.45817,1.7942 -2.86801,3.64609 -2.4991,8.52206 1.07148,14.19807 0.60672,0.96447 1.71565,2.16714 1.99167,3.00854 0.12822,0.39073 -0.37816,0.63774 -0.37816,0.86557 0,0.71842 0.48956,1.71258 1.08406,2.20597 1.61963,1.34417 13.37039,21.31345 18.04278,30.66094 6.43686,12.87749 8.86197,19.67016 11.17695,31.29124 2.41913,12.1439 2.9231,24.93854 1.17651,29.88359 -1.74836,4.95006 -2.54806,5.19417 -18.42935,5.66409 -13.98885,0.41394 -25.99268,-0.054 -25.99268,-1.11349 0,-0.30418 2.3996,-0.80145 3.81949,-1.06727 3.49,-0.65332 8.91909,-3.29848 11.9921,-5.84479 2.91168,-2.41264 4.22749,-6.12942 4.01698,-13.52155 -0.0682,-2.39726 -0.3618,-4.42052 0.80675,-5.99187 0.56026,-0.75337 0.99819,-2.43109 1.23116,-3.56317 0.23294,-1.13208 -0.14823,-2.62805 1.78157,-3.03794 0.63624,-0.13511 0.97166,-0.84147 1.92864,-1.64712 0.29001,-0.24412 1.23583,-0.41336 1.49588,-0.65549 1.34808,-1.25524 1.05272,-1.96656 1.88663,-2.10933 0.50567,-0.0867 2.03771,-0.0129 2.84886,0.42017 0.71618,0.38329 2.79843,1.20594 2.79843,1.20594 0,0 -0.62305,-1.723 -1.82781,-2.76061 -2.85211,-2.45642 -8.02199,-1.60624 -9.57183,0.25631 -0.84931,1.02064 -3.4157,2.65395 -3.56317,2.36984 -0.022,-0.86418 2.77642,-3.69628 3.56739,-4.5758 0.44415,-0.49387 0.40052,-1.36159 1.00844,-2.02531 0.83307,-0.9095 1.73438,-0.97437 2.30262,-1.26475 0.93644,-0.47857 1.39889,-0.7607 2.35723,-0.47902 3.1416,0.9234 3.69763,0.46641 3.69763,0.46641 0,0 -1.97825,-1.83885 -4.05899,-2.7186 -1.58815,-0.67148 -3.24891,-0.47444 -4.06319,-0.29833 -1.11989,0.24218 -2.22605,1.47972 -3.03795,2.18496 -0.83909,0.72888 -1.92363,1.15065 -2.31521,1.51268 -0.85779,0.79305 -1.84233,1.85126 -2.30683,3.31105 -0.0497,-1.86232 1.15598,-3.38507 1.76058,-5.07163 0.21651,-0.60395 -0.12069,-1.36339 0.32354,-2.03792 0.71089,-1.07976 2.35996,-1.98327 3.47494,-1.98327 0.54836,0 1.44124,0.0587 1.44124,0.0587 0,0 -3.14528,-1.38242 -4.56321,-1.38242 -1.84349,0 -2.90256,1.49177 -4.50019,2.9119 -1.52041,1.35145 -2.00698,1.62446 -2.07571,4.41614 -0.0405,1.64391 -1.35202,4.83825 -3.06738,7.94571 -2.66404,4.82604 -2.90101,5.69632 -3.29004,11.97949 -0.40479,6.53752 -0.51421,6.89682 -3.10936,10.31136 -3.28249,4.31888 -7.19257,7.65246 -9.90798,7.55914 -4.66888,-0.1605 -5.08564,-4.13233 -12.45432,-7.53811 0.0863,-0.5742 0.11553,-1.018 0.21428,-1.55889 0.12994,-0.71257 0.96513,-10.8487 2.01269,-22.50095 l 1.90765,-21.18575 -1.50847,-9.19366 c -1.3735,-8.3705 -1.4303,-11.43533 -0.21018,-11.42066 0.24347,0.002 2.45413,1.01062 4.91196,2.2396 3.90311,1.95162 4.90465,2.88633 7.9163,7.37427 1.8965,2.82612 4.46253,5.81903 5.70192,6.65152 4.73252,3.17877 11.41289,2.65115 15.50065,-1.22274 1.61239,-1.52804 1.83633,-1.96999 0.83197,-1.63873 -9.33624,3.07942 -12.18398,1.89151 -15.35778,-6.41203 -2.06532,-5.40346 -5.60319,-8.98333 -11.36182,-11.49206 -2.53138,-1.10281 -4.60524,-2.39534 -4.60524,-2.86988 0,-0.47457 -0.61815,-1.87805 -1.37401,-3.11778 -0.75585,-1.2397 -1.37258,-3.26291 -1.374,-4.49598 -0.002,-1.55437 -0.55283,-2.71509 -1.78999,-3.78586 -3.0635,-2.65145 -3.19337,-3.44883 -1.63453,-10.08867 1.28335,-5.4663 1.75193,-6.65101 0.4622,-8.09697 -1.36086,-1.52572 -1.33212,-2.86425 -1.42022,-3.79428 -0.18738,-1.97733 -2.51716,-3.61895 -6.71877,-5.52124 -1.19462,-0.54087 -1.85593,-0.8054 -2.61761,-0.74786 -0.76171,0.0574 -1.62563,0.43681 -3.23531,1.18921 z m -62.73372,253.880297 c 9.7504,0.404885 18.36135,3.093599 24.92542,7.777626 6.5639,4.6838985 6.64834,4.9023466 2.31941,6.0926886 -4.84921,1.3334069 -11.57392,1.7649462 -17.09314,1.0924772 -10.10455,-1.2311317 -19.96301,-7.1477968 -19.96301,-11.9794708 0,-2.167873 0.81109,-2.959527 3.43575,-3.034243 2.62467,-0.07465 4.28289,-0.03593 6.37557,0.05099 z"
       sodipodi:nodetypes="csscsssscssscssscsssssssscscsscsssssscsssscssscssssssssccsscssscscscsscsccsscscsscsscscsscsssssssssssscsssssssssscssssscssssssssssscccsssscsssssssscscssssssssssssssssssssssssssscccsssssssssssscssssccsssscssscssssssssssssssscccsssscssssssssssccsssssssssscsssscsssssssssscsssscssssscsscssssssssssssscssssscccsscsssscsssscscscsssssssccccccsssscsssscssscscscsssscc" />
  </g>
</svg>
